<svg xmlns="http://www.w3.org/2000/svg" width="860" height="194" viewBox="0 0 860 194" version="1.1"><path d="M 582.328 74.877 C 575.390 78.129, 572.590 84.689, 575.335 91.260 C 577.159 95.624, 581.189 97.884, 592.650 100.970 C 597.133 102.178, 601.745 104.046, 602.900 105.122 C 605.770 107.796, 605.590 112.097, 602.486 115.013 C 597.834 119.383, 584.884 118.795, 577.895 113.896 C 575.319 112.090, 575.277 112.097, 574.184 114.495 C 573.215 116.622, 573.413 117.157, 575.790 118.847 C 579.627 121.574, 585.472 122.988, 592.934 122.994 C 604.340 123.004, 611 117.887, 611 109.111 C 611 102.294, 607.526 99.440, 595 95.967 C 581.762 92.296, 577.934 88.728, 581.030 82.945 C 583.727 77.904, 594.917 76.418, 602.899 80.040 C 605.318 81.137, 607.400 81.915, 607.525 81.768 C 607.649 81.620, 608.055 80.511, 608.427 79.302 C 609.456 75.951, 604.318 73.731, 594.500 73.285 C 588.111 72.995, 585.660 73.316, 582.328 74.877 M 636.010 74.981 C 634.517 77.771, 614 122.209, 614 122.653 C 614 122.844, 615.369 123, 617.042 123 C 619.820 123, 620.337 122.436, 623 116.500 L 625.916 110 639.846 110 L 653.775 110 656.538 116.500 C 659.139 122.622, 659.491 123, 662.587 123 L 665.875 123 663.027 116.750 C 644 74.996, 643.221 73.514, 640.107 73.192 C 637.914 72.964, 636.838 73.434, 636.010 74.981 M 674 98 L 674 123 677 123 L 680 123 680 98 L 680 73 677 73 L 674 73 674 98 M 696 98 L 696 123 713 123 L 730 123 730 120.500 L 730 118 716 118 L 702 118 702 95.500 L 702 73 699 73 L 696 73 696 98 M 738 98 L 738 123 741 123 L 744 123 744 98 L 744 73 741 73 L 738 73 738 98 M 760 98 L 760 123 762.978 123 L 765.957 123 766.228 103.835 L 766.500 84.671 781.947 103.835 C 795.370 120.489, 797.762 123, 800.197 123 L 803 123 803 98 L 803 73 800.021 73 L 797.042 73 796.771 92.715 L 796.500 112.430 781 92.791 C 767.758 76.012, 765.099 73.140, 762.750 73.075 L 760 73 760 98 M 829.753 74.517 C 815.594 79.717, 809.251 96.530, 816.459 109.754 C 821.651 119.281, 829.950 123.484, 842.289 122.836 C 847.179 122.579, 851.029 121.711, 854.250 120.139 L 859 117.822 859 107.911 L 859 98 856 98 L 853 98 853 106.551 L 853 115.102 849.532 116.551 C 842.046 119.679, 831.515 117.758, 825.661 112.197 C 812.203 99.414, 821.783 77.985, 840.946 78.006 C 846.191 78.012, 848.462 78.731, 853.734 82.053 C 855.707 83.297, 856.174 83.251, 857.734 81.662 C 859.425 79.940, 859.378 79.765, 856.641 77.557 C 855.069 76.289, 852.092 74.745, 850.025 74.126 C 844.984 72.615, 834.374 72.820, 829.753 74.517 M 633.789 92.511 L 628.157 105 639.578 105 C 645.860 105, 651 104.815, 651 104.590 C 651 103.805, 640.813 81.496, 640.119 80.761 C 639.736 80.354, 636.887 85.642, 633.789 92.511" stroke="none" fill="#adb5a7" fill-rule="evenodd"/><path d="M 59.453 3.900 L 63.406 8 78.953 8.006 C 87.504 8.009, 98.205 8.300, 102.734 8.653 L 110.967 9.294 107.734 12.960 C 105.955 14.977, 103.150 18.379, 101.500 20.522 C 99.850 22.664, 95.070 28.036, 90.877 32.459 C 86.684 36.881, 82.066 42.413, 80.615 44.750 L 77.975 49 83.322 49 L 88.670 49 96.335 40.917 C 100.551 36.472, 104 32.615, 104 32.346 C 104 31.751, 115.502 17.081, 122.860 8.291 C 125.809 4.769, 127.930 1.597, 127.575 1.241 C 127.219 0.886, 110.857 0.416, 91.214 0.197 L 55.500 -0.201 59.453 3.900 M 83.706 13.627 C 83.361 13.972, 81.374 14.617, 79.290 15.061 C 63.006 18.529, 54.939 22.714, 44.126 33.301 C 35.822 41.431, 26.654 54.293, 14.047 75.500 C 11.105 80.450, 6.740 87.093, 4.349 90.261 C 1.957 93.430, -0 96.499, -0 97.081 C -0 97.664, 3.037 102.496, 6.750 107.819 C 12.903 116.643, 20.381 128.420, 25.113 136.742 C 34.310 152.914, 47.508 166.487, 59.933 172.551 C 70.021 177.474, 74.873 178.838, 85 179.599 C 92.807 180.185, 93.654 180.066, 95.386 178.139 C 97.243 176.075, 97.235 176.008, 94.886 173.966 C 90.847 170.454, 86.345 169, 79.510 169 C 73.970 169, 71.642 168.387, 64.452 165.034 C 57.569 161.824, 54.473 159.582, 48.223 153.282 C 41.141 146.141, 31.566 132.418, 27.920 124.181 C 27.145 122.431, 26.172 121, 25.756 121 C 25.340 121, 25 120.546, 25 119.991 C 25 119.436, 22.413 115.109, 19.250 110.375 C 16.087 105.641, 12.743 100.624, 11.819 99.227 C 10.205 96.788, 10.237 96.556, 12.626 93.423 C 15.204 90.044, 29 68.107, 29 67.389 C 29 66.622, 39.755 50.502, 42.604 47 C 50.873 36.833, 60.979 28.964, 70 25.669 C 72.475 24.764, 77.965 23.615, 82.201 23.115 C 92.708 21.875, 98.428 17.828, 94.800 14.200 C 93.563 12.963, 84.822 12.512, 83.706 13.627 M 71.385 30.948 C 64.261 32.649, 55.840 41.757, 51.678 52.261 C 48.116 61.251, 47.871 73.852, 51.133 80.290 C 53.729 85.413, 59.033 92.300, 59.796 91.537 C 60.101 91.232, 61.836 95.299, 63.650 100.575 C 69.262 116.893, 72.836 121.814, 82.741 126.868 C 86.948 129.014, 96 129.850, 96 128.093 C 96 126.812, 86.036 118, 84.588 118 C 81.870 118, 75.820 110.025, 73.398 103.250 L 72.236 100 75.618 100 C 78.351 100, 79 99.610, 79 97.969 C 79 96.851, 78.213 95.639, 77.250 95.275 C 76.287 94.910, 73.700 92.934, 71.500 90.883 C 69.300 88.831, 66.284 86.106, 64.798 84.827 C 60.575 81.190, 58.727 75.595, 58.912 67 C 59.177 54.675, 60.098 52.685, 70.601 41.741 C 75.771 36.356, 80 31.511, 80 30.975 C 80 29.864, 75.978 29.852, 71.385 30.948 M 137 36.121 C 126.850 40.156, 125.371 52.605, 134.238 59.368 C 138.125 62.333, 141.207 62.649, 146.128 60.587 C 151.474 58.348, 154.226 54.729, 154.726 49.283 C 155.104 45.156, 154.781 44.042, 152.366 41.164 C 147.603 35.486, 142.669 33.867, 137 36.121 M 138.667 44.667 C 137.440 45.894, 137.983 50.741, 139.487 51.989 C 142.863 54.791, 147.192 49.102, 144.234 45.750 C 142.674 43.982, 139.893 43.441, 138.667 44.667 M 88.250 63.160 C 85.944 64.334, 85.287 66.441, 86.913 67.447 C 87.416 67.757, 88.836 70.095, 90.068 72.641 C 91.301 75.188, 94.421 80.473, 97 84.386 C 99.580 88.298, 104.798 97.067, 108.596 103.871 C 115.920 116.996, 124.276 127, 127.913 127 C 129.524 127, 129.999 126.373, 129.996 124.250 C 129.992 121.693, 127.916 117.862, 120.579 106.875 C 118.972 104.469, 115.665 98.691, 113.230 94.036 C 110.795 89.381, 107.384 83.587, 105.651 81.160 C 101.433 75.254, 99.162 71.659, 99.073 70.750 C 99.033 70.338, 100.125 70, 101.500 70 C 102.875 70, 104.002 70.338, 104.004 70.750 C 104.006 71.162, 106.012 72.324, 108.461 73.331 C 116.243 76.531, 121.977 84.886, 121.994 93.050 C 122.002 96.474, 123.740 98, 127.633 98 C 131.750 98, 132.599 95.667, 130.964 88.850 C 128.565 78.848, 121.250 69.780, 111.500 64.718 C 106.781 62.268, 91.955 61.275, 88.250 63.160 M 136.320 68.610 C 135.980 69.495, 135.987 78.383, 136.336 88.360 C 136.685 98.337, 136.977 111.112, 136.985 116.750 L 137 127 141 127 L 145 127 145 97 L 145 67 140.969 67 C 138.186 67, 136.746 67.498, 136.320 68.610 M 64.998 70.250 C 64.996 71.738, 67.461 74.872, 72.272 79.500 C 78.750 85.732, 80.314 88.036, 86.524 100.500 C 92.182 111.854, 94.664 115.681, 99.657 120.750 C 105.190 126.366, 106.224 127, 109.848 127 C 112.067 127, 114.091 126.662, 114.346 126.250 C 114.601 125.837, 112.567 123.024, 109.825 120 C 103.655 113.192, 101.796 110.337, 94.522 96.500 C 85.162 78.696, 78.853 70.886, 72.376 69.087 C 66.482 67.451, 65 67.684, 64.998 70.250 M 164.500 74.866 C 155.579 78.929, 149.094 90.470, 150.492 99.795 C 150.876 102.357, 152.009 106.039, 153.011 107.977 C 155.297 112.403, 161.618 118.549, 165.315 119.940 C 169.347 121.458, 179.628 121.248, 182.800 119.582 C 188.306 116.692, 196 106.764, 196 102.550 C 196 101.232, 197.882 101, 208.551 101 L 221.102 101 222.551 97.532 C 223.348 95.625, 224 93.825, 224 93.532 C 224 93.239, 217.793 93, 210.207 93 L 196.415 93 195.226 88.556 C 193.805 83.242, 189.111 77.608, 183.885 74.941 C 178.960 72.429, 169.928 72.394, 164.500 74.866 M 166.500 84.296 C 159.333 88.351, 157.064 97.065, 161.266 104.396 C 168.983 117.856, 187.985 112.170, 187.996 96.398 C 188.005 84.720, 176.850 78.440, 166.500 84.296 M 285.390 94.427 C 285.088 95.212, 284.990 96.900, 285.171 98.177 C 285.469 100.278, 286.074 100.525, 291.500 100.761 C 297.405 101.018, 297.552 100.959, 300.806 97.011 L 304.113 93 295.025 93 C 288.075 93, 285.808 93.336, 285.390 94.427 M 335.036 93.956 C 333.903 94.673, 333.795 95.517, 334.557 97.691 C 335.517 100.426, 335.759 100.508, 343.771 100.790 L 352 101.081 352 97.040 L 352 93 344.250 93.015 C 339.988 93.024, 335.841 93.447, 335.036 93.956 M 407.101 94.378 C 406.299 95.345, 406.255 96.540, 406.954 98.378 C 407.915 100.907, 408.236 101, 415.975 101 L 424 101 424 97 L 424 93 416.122 93 C 410.649 93, 407.896 93.421, 407.101 94.378 M 474.832 95.470 C 472.892 99.727, 475.031 101, 484.122 101 L 492 101 492 97 L 492 93 483.979 93 C 476.418 93, 475.892 93.142, 474.832 95.470 M 53.988 111.250 C 52.898 113.037, 51.728 115.967, 51.390 117.761 C 51.051 119.555, 50.374 121.269, 49.887 121.570 C 48.279 122.564, 48.963 133.581, 51.002 139.505 C 54.422 149.445, 65.402 161.745, 72.335 163.403 C 75.667 164.200, 79 163.351, 79 161.705 C 79 161.067, 75.057 156.710, 70.238 152.023 C 63.563 145.530, 61.181 142.492, 60.238 139.266 C 58.578 133.589, 58.678 127.447, 60.532 121.204 C 61.983 116.318, 61.956 115.833, 60.012 112.023 C 58.883 109.810, 57.512 108, 56.965 108 C 56.418 108, 55.079 109.463, 53.988 111.250 M 134.230 134.599 C 124.607 142.183, 126.574 153.958, 138.147 158.041 C 142.666 159.635, 145.861 158.507, 151.250 153.416 C 154.511 150.336, 155 149.283, 155 145.341 C 155 134.616, 142.447 128.124, 134.230 134.599 M 137.861 143.405 C 136.360 146.700, 138.257 149.226, 141.914 148.801 C 144.145 148.541, 144.500 148.020, 144.500 145 C 144.500 141.928, 144.165 141.461, 141.758 141.184 C 139.631 140.939, 138.758 141.437, 137.861 143.405 M 81 145.447 C 81 147.541, 87.125 155.906, 93.381 162.354 C 97.571 166.674, 101 170.663, 101 171.218 C 101 171.774, 103.264 174.842, 106.031 178.036 C 108.798 181.230, 110.684 184.077, 110.223 184.362 C 109.761 184.648, 99.123 185.203, 86.583 185.596 C 64.391 186.292, 63.707 186.376, 60.892 188.744 C 55.180 193.551, 56.400 194.007, 74.750 193.927 C 96.702 193.831, 126.734 192.599, 127.574 191.760 C 127.939 191.395, 126.269 188.712, 123.863 185.798 C 121.457 182.884, 118.469 179.150, 117.222 177.500 C 109.803 167.685, 106.166 163.091, 103.737 160.472 C 102.232 158.849, 101 157.151, 101 156.700 C 101 156.249, 98.685 153.432, 95.855 150.440 C 91 145.307, 90.436 145, 85.855 145 C 83.185 145, 81 145.201, 81 145.447" stroke="none" fill="#ff7300" fill-rule="evenodd"/><path d="M 229.158 81.750 C 226.869 87.112, 224.997 91.840, 224.998 92.255 C 224.999 92.670, 223.841 95.370, 222.424 98.255 C 221.008 101.140, 217.883 107.888, 215.481 113.250 L 211.114 123 220.397 123 L 229.680 123 231 119 L 232.320 115 241.741 115 L 251.161 115 252.732 119 L 254.303 123 263.587 123 L 272.871 123 264.865 104.750 C 260.462 94.713, 255.479 83.237, 253.791 79.250 L 250.723 72 242.021 72 L 233.319 72 229.158 81.750 M 352.326 89.897 C 352.779 105.240, 353.143 108.361, 354.883 111.771 C 357.596 117.089, 362.008 120.628, 368.229 122.475 C 380.963 126.257, 393.618 122.261, 399.074 112.736 C 401.357 108.750, 401.519 107.422, 401.829 90.250 L 402.159 72 393.665 72 L 385.172 72 384.836 88.397 C 384.540 102.834, 384.272 105.046, 382.595 106.897 C 379.813 109.968, 374.703 109.710, 372.073 106.365 C 370.174 103.951, 370 102.401, 370 87.865 L 370 72 360.899 72 L 351.799 72 352.326 89.897 M 288 79.500 L 288 86 298.562 86 L 309.124 86 305.812 90.660 C 303.990 93.222, 300.983 96.935, 299.129 98.910 C 288.252 110.496, 287 112.451, 287 117.858 L 287 123 310.500 123 L 334 123 334 116.500 L 334 110 322.500 110 C 316.175 110, 311 109.757, 311 109.459 C 311 109.162, 315.950 103.125, 322 96.044 C 332.870 83.322, 333 83.110, 333 78.085 L 333 73 310.500 73 L 288 73 288 79.500 M 424 98 L 424 123 433 123 L 442 123 442 116.500 C 442 107.646, 444.125 107.646, 449.532 116.498 L 453.500 122.995 463.280 122.998 L 473.061 123 467.959 115.439 L 462.857 107.879 466.851 103.545 C 473.900 95.899, 473.304 84.986, 465.462 78.101 C 460.585 73.819, 456.433 73.012, 439.250 73.006 L 424 73 424 98 M 492 98 L 492 123 513 123 L 534 123 534 116.500 L 534 110 521.500 110 L 509 110 509 107.034 L 509 104.068 519.750 103.784 L 530.500 103.500 530.798 97.250 L 531.095 91 520.048 91 L 509 91 509 88.531 L 509 86.062 521.250 85.781 L 533.500 85.500 533.798 79.250 L 534.095 73 513.048 73 L 492 73 492 98 M 442 91.500 L 442 97 446.345 97 C 449.284 97, 451.225 96.408, 452.345 95.171 C 456.248 90.858, 452.978 86, 446.171 86 L 442 86 442 91.500 M 239.735 95.884 C 238.781 98.571, 238 101.046, 238 101.384 C 238 101.723, 239.830 102, 242.067 102 C 245.782 102, 246.075 101.812, 245.448 99.837 C 244.509 96.877, 242.030 91, 241.721 91 C 241.583 91, 240.689 93.198, 239.735 95.884" stroke="none" fill="#ffffff" fill-rule="evenodd"/></svg>